<?xml version="1.0" standalone="no"?>
<!DOCTYPE svg PUBLIC "-//W3C//DTD SVG 20010904//EN"
 "http://www.w3.org/TR/2001/REC-SVG-20010904/DTD/svg10.dtd">
<svg version="1.0" xmlns="http://www.w3.org/2000/svg"
 width="400.000000pt" height="400.000000pt" viewBox="0 0 400.000000 400.000000"
 preserveAspectRatio="xMidYMid meet">
<metadata>
Created by potrace 1.14, written by Peter Selinger 2001-2017
</metadata>
<g transform="translate(0.000000,400.000000) scale(0.100000,-0.100000)"
fill="#000000" stroke="none">
<path d="M1834 3835 c0 -13 3 -22 7 -19 4 2 10 -3 13 -11 4 -13 2 -14 -14 -5
-11 6 -20 15 -20 20 0 6 -9 10 -20 10 -11 0 -20 -4 -20 -9 0 -17 -45 -6 -57
14 -7 11 -13 16 -14 10 0 -5 -2 -22 -3 -38 -2 -15 -7 -31 -11 -35 -5 -4 -5 1
-2 11 8 21 -11 23 -20 1 -5 -14 -7 -14 -16 2 -9 16 -12 15 -34 -12 -14 -18
-21 -22 -17 -10 5 13 4 17 -4 12 -7 -4 -12 -2 -12 4 0 6 -4 9 -10 5 -5 -3 -6
-13 -3 -22 5 -13 3 -13 -14 3 -26 25 -19 35 18 29 30 -5 35 0 20 23 -7 11 -9
10 -14 -3 -6 -13 -11 -14 -28 -4 -14 7 -19 7 -15 0 4 -5 -2 -15 -13 -20 -25
-14 -34 -14 -25 0 3 6 -5 4 -19 -5 -20 -13 -26 -14 -30 -4 -4 11 -6 11 -6 0
-1 -7 -5 -11 -9 -8 -5 3 -9 -1 -9 -9 0 -8 4 -15 9 -15 4 0 8 5 8 12 0 6 3 8 6
5 4 -3 14 -2 23 3 13 6 17 4 17 -11 0 -12 -4 -15 -10 -9 -6 6 -16 5 -28 -1
-10 -5 -23 -7 -29 -3 -6 3 -20 -2 -31 -13 -12 -10 -18 -12 -14 -5 6 11 0 14
-20 11 -4 0 -11 5 -16 13 -5 8 -6 3 -2 -14 8 -36 -1 -49 -29 -38 -76 30 -92
33 -76 14 14 -18 -2 -24 -51 -21 -32 2 -35 0 -35 -25 0 -14 -4 -30 -8 -35 -5
-4 -8 -3 -7 2 5 25 -2 35 -22 34 -17 -1 -19 -2 -5 -6 29 -8 19 -22 -13 -18
-17 2 -28 0 -24 -6 3 -5 11 -6 17 -3 7 4 9 4 5 0 -4 -5 -3 -19 2 -32 5 -13 7
-24 5 -24 -3 0 -10 12 -16 27 -7 20 -13 23 -21 15 -18 -18 -33 -14 -18 3 7 9
10 18 6 22 -3 3 -6 1 -6 -5 0 -7 -5 -11 -12 -10 -7 2 -12 -4 -13 -12 0 -17
-26 -21 -38 -5 -5 6 -7 4 -4 -5 2 -8 14 -14 25 -14 23 1 29 -10 12 -21 -5 -3
-10 -2 -10 2 0 13 -39 13 -46 1 -5 -7 -2 -8 6 -3 9 6 11 4 5 -5 -6 -10 -3 -12
11 -7 14 5 12 2 -6 -13 -14 -11 -29 -20 -34 -20 -6 0 -1 7 10 16 18 15 18 15
0 10 -13 -5 -17 -2 -12 9 3 8 1 15 -4 15 -6 0 -11 -10 -11 -22 -3 -48 -4 -53
-17 -50 -7 1 -22 -3 -33 -9 -15 -8 -24 -7 -35 2 -8 6 -17 9 -21 5 -3 -3 -1 -6
5 -6 7 0 12 -4 12 -10 0 -5 -6 -7 -14 -4 -8 3 -17 0 -22 -7 -5 -8 -3 -10 7 -4
10 6 11 5 4 -3 -6 -6 -20 -13 -32 -15 -13 -2 -26 -7 -30 -12 -5 -4 -2 -5 5 -1
7 4 12 2 12 -6 0 -9 3 -9 10 2 5 8 10 11 10 5 0 -5 -5 -17 -10 -25 -5 -8 -10
-10 -10 -4 0 7 -9 14 -20 17 -11 3 -18 1 -14 -4 3 -5 0 -9 -5 -9 -6 0 -11 5
-11 12 0 6 -2 9 -5 6 -3 -3 -3 -12 1 -21 5 -13 10 -14 27 -6 12 6 6 -3 -13
-20 -19 -16 -37 -28 -39 -25 -2 2 -10 -5 -18 -16 -8 -11 -20 -20 -26 -20 -7 0
-4 7 7 15 10 7 15 18 12 24 -4 6 2 8 14 6 13 -3 18 0 14 7 -5 7 -2 8 6 3 9 -6
11 -4 5 5 -6 9 -4 11 6 5 12 -8 12 -6 0 8 -7 9 -21 17 -30 16 -13 0 -13 -2 2
-8 18 -7 18 -8 1 -21 -9 -8 -20 -14 -23 -12 -3 1 -6 -4 -6 -10 -1 -7 -7 -12
-14 -10 -7 1 -10 -2 -5 -9 5 -9 2 -10 -12 -6 -16 6 -15 4 4 -12 12 -11 19 -21
14 -23 -4 -1 -17 -16 -30 -32 -12 -16 -22 -24 -22 -17 0 6 0 14 0 19 0 4 5 7
12 7 6 0 13 6 16 14 3 8 0 11 -7 7 -6 -4 -9 -1 -8 6 2 7 2 10 0 5 -3 -4 -8 -5
-13 -2 -4 3 -7 -3 -6 -12 0 -9 -5 -18 -12 -20 -8 -3 -10 2 -6 14 5 15 4 15 -5
3 -7 -11 -6 -19 5 -31 10 -12 12 -19 4 -24 -5 -3 -7 -11 -4 -17 4 -6 2 -8 -4
-4 -6 3 -14 1 -17 -4 -4 -6 -20 -10 -37 -8 -17 2 -29 -1 -27 -7 2 -5 7 -9 12
-8 4 2 7 -2 7 -7 0 -15 -21 -12 -44 8 -14 11 -17 12 -10 2 9 -13 10 -21 5 -47
-1 -5 -6 -1 -11 7 -8 13 -10 13 -10 -2 0 -10 7 -16 19 -15 11 0 19 6 18 12 -1
5 8 9 21 9 20 -1 26 7 23 28 0 4 6 5 15 1 12 -4 12 -8 4 -13 -7 -4 -10 -13 -6
-18 4 -7 -1 -9 -13 -7 -13 2 -28 -6 -42 -23 -21 -27 -55 -51 -74 -51 -5 -1 -3
4 5 10 13 9 13 10 0 6 -8 -2 -15 -10 -15 -18 -1 -8 -7 -13 -14 -11 -7 1 -10
-2 -7 -7 7 -11 -33 -43 -45 -36 -9 6 -6 -15 4 -31 11 -19 -5 -25 -20 -6 -13
15 -13 15 -4 -5 14 -29 14 -40 -1 -25 -15 15 -28 16 -28 2 0 -6 3 -9 8 -9 4 1
10 0 15 -1 4 -1 12 -3 19 -4 6 0 12 -9 14 -18 2 -16 0 -16 -22 -1 -21 13 -24
13 -19 1 4 -9 -1 -18 -10 -21 -8 -4 -20 -18 -25 -32 -6 -15 -14 -23 -20 -20
-6 3 -7 -1 -4 -9 4 -9 1 -16 -6 -16 -7 0 -10 -6 -7 -14 7 -17 -27 -69 -38 -59
-4 5 -5 2 0 -6 7 -12 10 -11 22 4 12 17 13 16 10 -16 -2 -21 -8 -33 -16 -31
-9 2 -10 -4 -5 -20 l7 -23 -19 20 c-11 12 -15 16 -11 9 4 -7 4 -15 -2 -18 -5
-4 -13 3 -16 15 -4 11 -9 18 -12 16 -8 -9 18 -48 28 -42 5 4 9 1 9 -5 0 -6 4
-9 8 -6 5 3 9 -1 9 -9 0 -18 -14 -20 -20 -2 -3 9 -12 8 -34 -5 -17 -10 -34
-14 -38 -10 -5 4 -5 2 -1 -5 4 -7 14 -10 24 -7 11 4 8 -2 -8 -15 -14 -12 -18
-19 -8 -15 12 4 16 1 13 -13 -2 -10 -4 -20 -4 -23 -1 -3 -6 2 -12 10 -9 12
-10 12 -5 -4 5 -14 2 -17 -11 -12 -15 5 -15 4 1 -9 18 -14 15 -20 -7 -16 -5 1
-6 -3 -3 -8 4 -5 3 -11 -1 -14 -5 -2 -3 -3 3 -1 6 1 16 -2 22 -8 6 -6 9 0 7
21 -2 19 1 28 8 24 6 -4 7 -1 2 7 -5 9 -4 11 4 6 9 -6 9 -11 0 -22 -9 -11 -8
-14 2 -14 10 0 10 -3 3 -8 -6 -4 -10 -15 -8 -24 1 -10 -3 -21 -8 -25 -6 -3 -8
-1 -5 4 7 11 -22 28 -31 18 -3 -3 0 -5 7 -5 7 0 4 -8 -7 -21 -16 -17 -18 -24
-8 -44 6 -13 14 -21 18 -19 5 3 8 0 8 -5 0 -6 -5 -11 -11 -11 -6 0 -8 -8 -4
-19 3 -10 -1 -24 -10 -31 -15 -13 -12 -30 6 -30 6 0 7 5 3 12 -5 7 -3 8 6 3
10 -6 10 -11 -3 -20 -9 -7 -15 -15 -12 -18 3 -4 2 -5 -2 -2 -3 3 -11 1 -17 -5
-8 -6 -12 -3 -13 11 -1 10 2 19 7 19 4 0 7 8 5 18 -1 9 3 28 10 42 11 21 11
29 0 43 -15 21 -22 22 -22 2 0 -8 4 -12 8 -9 4 2 10 0 14 -6 3 -5 1 -10 -4
-10 -6 0 -10 -6 -9 -12 2 -7 -2 -12 -8 -11 -6 1 -10 -9 -8 -24 1 -15 -1 -34
-6 -43 -6 -11 -5 -21 2 -28 9 -9 7 -17 -8 -33 -10 -13 -13 -19 -5 -14 11 6 13
4 6 -11 -4 -10 -9 -126 -9 -256 -1 -196 1 -235 12 -226 9 8 10 13 1 18 -6 4
-7 10 -2 13 5 3 15 -3 22 -15 7 -11 8 -17 3 -14 -9 5 -10 -29 -3 -64 1 -3 6 2
12 10 9 13 10 13 6 0 -2 -8 -10 -14 -17 -12 -6 1 -10 -3 -7 -10 2 -7 9 -12 15
-11 6 2 9 -6 7 -17 -2 -11 1 -20 7 -20 5 0 8 -7 4 -15 -3 -8 3 -19 12 -25 16
-11 16 -11 0 -6 -10 3 -28 2 -40 -3 l-22 -8 22 -5 c15 -4 20 -2 15 5 -4 8 -2
8 9 0 8 -7 17 -11 20 -8 2 3 5 -2 5 -10 0 -8 -4 -12 -9 -9 -4 3 -8 0 -8 -5 0
-6 4 -11 9 -11 13 0 21 -27 15 -45 -10 -24 -22 -17 -20 10 2 13 0 22 -5 20 -4
-3 -6 5 -5 18 2 16 -2 23 -15 23 -16 0 -16 -3 -5 -16 7 -8 11 -20 9 -27 -2 -6
1 -14 7 -18 8 -5 7 -11 -2 -23 -8 -10 -8 -13 -1 -9 6 4 13 1 16 -5 3 -10 7
-10 19 0 10 8 19 9 22 3 4 -5 2 -12 -4 -16 -6 -4 -8 -11 -4 -16 3 -5 9 -7 13
-5 4 3 7 -4 8 -14 1 -11 -2 -22 -7 -25 -15 -9 1 -44 18 -38 13 4 14 3 4 -5
-11 -7 -10 -10 3 -16 9 -3 22 -3 28 0 7 3 4 -1 -5 -9 -22 -18 -23 -27 -1 -27
9 0 14 -3 10 -6 -8 -8 -48 6 -42 15 2 5 -3 17 -11 27 -9 10 -13 13 -9 7 4 -9
1 -11 -9 -7 -9 3 -16 1 -16 -5 0 -6 3 -10 7 -10 19 3 36 -2 30 -8 -4 -3 0 -15
9 -25 14 -15 15 -20 3 -35 -9 -11 -10 -14 -1 -9 6 4 12 2 12 -3 0 -6 5 -11 11
-11 8 0 8 5 -1 15 -9 11 -9 15 -1 15 7 0 9 5 5 12 -4 7 -3 8 4 4 6 -4 9 -13 6
-20 -3 -8 -1 -17 5 -20 6 -4 8 -13 5 -21 -4 -8 -10 -13 -14 -10 -5 3 -12 0
-16 -6 -4 -7 -3 -9 4 -5 6 3 13 2 17 -4 3 -5 1 -10 -4 -10 -6 0 -11 -5 -11
-11 0 -8 5 -8 15 1 18 15 20 -1 3 -18 -8 -8 -8 -12 -1 -12 6 0 14 8 17 17 6
14 9 14 22 -6 13 -18 13 -25 3 -37 -11 -13 -10 -15 7 -12 10 1 23 8 27 13 5 6
7 3 3 -7 -7 -22 13 -35 25 -17 6 9 9 10 9 2 0 -7 -6 -16 -12 -20 -18 -11 -17
-66 1 -80 14 -11 14 -13 1 -14 -8 -1 -19 0 -25 1 -5 1 -6 -2 -2 -7 5 -4 16 -8
25 -8 10 0 16 -6 14 -15 -2 -8 0 -11 4 -7 10 10 14 38 5 32 -4 -2 -8 2 -8 10
0 8 4 15 9 15 4 0 8 -5 8 -11 0 -5 6 -7 13 -3 9 6 9 5 -1 -8 -10 -12 -9 -18 3
-28 9 -7 13 -20 10 -28 -4 -10 0 -12 10 -8 9 3 13 2 10 -4 -3 -6 -2 -10 4 -10
6 0 8 -6 5 -14 -3 -9 -13 -12 -22 -9 -14 5 -15 3 -5 -7 10 -11 16 -11 30 3 14
12 22 13 33 6 13 -9 12 -10 -2 -6 -10 4 -19 -1 -23 -11 -3 -9 -1 -18 4 -20 6
-2 9 -8 6 -13 -4 -5 1 -6 10 -3 14 6 14 7 0 18 -15 10 -14 12 4 12 11 0 18 -4
15 -7 -2 -4 0 -10 6 -14 7 -4 6 -13 -1 -28 -9 -16 -9 -22 0 -25 6 -2 9 -8 5
-13 -3 -5 0 -9 6 -9 6 0 8 -5 4 -12 -4 -6 -3 -8 4 -4 6 3 14 0 19 -8 7 -12 10
-12 21 0 8 8 9 14 2 15 -5 1 -14 2 -20 3 -5 0 -11 6 -12 11 0 6 -8 16 -17 23
-14 12 -14 13 2 8 14 -5 17 -2 12 13 -3 11 -2 22 3 24 4 3 7 -6 7 -21 -1 -35
13 -56 30 -42 9 8 12 4 10 -15 -2 -14 1 -27 6 -31 5 -3 9 0 9 5 0 6 5 11 11
11 8 0 8 -4 0 -14 -8 -10 -9 -16 -1 -21 5 -3 10 -1 10 4 0 6 5 11 11 11 8 0 8
-5 -1 -15 -13 -15 -1 -21 16 -7 5 4 4 1 -3 -7 -9 -11 -15 -12 -26 -3 -11 10
-17 9 -27 -3 -11 -13 -10 -14 4 -9 10 4 26 -1 38 -12 12 -11 18 -14 15 -7 -4
6 -2 15 4 19 7 4 9 3 6 -3 -4 -6 0 -14 9 -17 15 -6 14 -9 -2 -34 -14 -21 -14
-24 -2 -14 10 8 19 9 22 3 3 -5 0 -12 -6 -14 -7 -3 2 -3 20 0 26 5 36 1 53
-21 11 -15 26 -23 32 -19 7 3 8 2 4 -2 -11 -13 -38 -15 -31 -3 5 7 2 8 -6 3
-9 -6 -11 -4 -5 5 6 9 4 11 -5 5 -9 -6 -11 -4 -5 5 6 9 4 11 -5 5 -8 -5 -11
-4 -7 2 3 5 0 10 -8 10 -8 0 -11 -5 -8 -11 9 -14 36 -34 44 -32 13 2 48 -37
42 -47 -4 -6 -1 -7 6 -3 9 6 8 13 -5 27 -9 10 -14 19 -10 19 4 0 16 -10 26
-22 16 -20 16 -23 1 -37 -9 -9 -12 -13 -7 -8 13 9 28 9 22 -1 -2 -4 5 -9 17
-9 20 -2 20 -1 4 8 -9 6 -15 15 -11 20 3 5 0 18 -8 27 -11 15 -11 15 3 5 9 -7
19 -9 24 -5 4 4 3 -3 -4 -15 -9 -18 -8 -23 8 -28 14 -4 18 -11 14 -23 -6 -15
-5 -15 11 -3 17 14 16 16 -6 34 l-23 18 25 -12 c14 -7 29 -12 34 -11 5 2 3 -5
-5 -14 -13 -16 -12 -17 6 -10 11 4 16 4 12 0 -4 -4 1 -13 11 -20 11 -8 19 -9
23 -2 4 7 9 6 13 -1 4 -6 2 -11 -4 -11 -6 0 -8 -5 -5 -10 5 -8 12 -7 23 2 15
11 15 11 5 -2 -14 -18 -13 -60 0 -60 5 0 7 7 3 15 -3 8 -1 15 5 15 6 0 8 4 5
8 -3 5 1 9 8 9 13 0 16 -11 18 -57 0 -14 3 -19 5 -12 3 6 9 12 14 12 6 0 7 -4
4 -10 -3 -5 -2 -10 4 -10 18 0 21 18 5 24 -9 4 -14 9 -10 13 3 4 17 -4 30 -16
19 -18 27 -20 50 -11 15 5 25 6 21 1 -3 -5 5 -18 18 -28 19 -15 21 -21 12 -30
-7 -7 -16 -9 -19 -5 -4 3 -4 -2 0 -12 6 -17 8 -17 16 -1 7 12 17 15 35 10 13
-3 22 -2 19 3 -4 7 18 8 43 3 2 -1 -2 -7 -9 -15 -9 -12 -7 -15 12 -13 13 0 26
6 31 12 4 5 5 -3 3 -20 -4 -20 0 -34 14 -47 18 -17 19 -17 17 1 -1 11 -7 17
-14 14 -7 -3 -13 -1 -13 5 0 14 29 36 37 28 3 -3 0 -6 -7 -6 -16 0 -3 -15 13
-15 7 0 18 6 25 15 10 13 11 12 5 -5 -6 -17 -4 -18 8 -8 13 10 16 10 16 -2 0
-8 -4 -12 -9 -9 -4 3 -8 -2 -8 -11 0 -9 -5 -13 -10 -10 -6 4 -8 10 -6 14 3 4
-1 8 -9 8 -8 0 -15 -6 -15 -14 0 -7 6 -12 13 -10 6 1 11 -4 9 -11 -1 -8 2 -11
7 -8 5 4 11 3 14 -1 2 -5 3 -3 1 3 -1 6 7 16 17 22 16 10 19 9 19 -4 0 -8 -4
-13 -8 -10 -4 2 -8 -4 -9 -14 -2 -18 -1 -18 16 -2 10 9 16 20 14 24 -2 4 3 5
11 2 13 -5 12 -9 -6 -23 -15 -13 -18 -20 -9 -25 7 -4 10 -2 9 5 -2 7 7 15 20
18 26 7 30 19 10 33 -10 8 -10 9 2 5 20 -5 20 -26 2 -57 l-15 -25 26 24 c15
13 24 27 22 31 -2 4 2 7 10 7 11 0 12 -4 3 -14 -8 -11 -7 -12 6 -7 10 4 16 1
16 -7 0 -7 -3 -9 -6 -6 -9 8 -44 -11 -44 -24 0 -6 8 -3 17 7 11 11 18 13 21 5
2 -6 8 -11 13 -11 6 0 7 5 4 10 -3 6 -1 10 5 10 6 0 8 6 4 13 -4 6 -4 9 1 5 4
-4 16 -3 26 3 13 6 19 6 19 -1 0 -5 -7 -10 -16 -10 -9 0 -12 -5 -8 -12 4 -7 3
-8 -4 -4 -7 4 -12 3 -12 -3 0 -5 9 -9 19 -8 11 0 17 5 15 9 -3 4 2 5 10 2 9
-4 13 -15 10 -32 -3 -20 -2 -23 5 -13 8 12 12 12 25 2 13 -11 19 -11 32 0 15
12 16 11 10 -11 -5 -19 -5 -21 3 -9 6 9 9 26 6 38 -2 12 0 19 6 16 5 -4 9 -1
9 6 0 7 3 9 6 6 4 -4 2 -13 -4 -20 -10 -11 -5 -14 23 -14 19 0 32 4 29 9 -4 5
3 4 14 -3 12 -7 18 -17 15 -22 -3 -5 -9 -4 -13 3 -5 9 -9 9 -14 1 -4 -6 -12
-11 -17 -11 -6 0 -8 4 -5 9 4 5 0 8 -6 7 -25 -3 -17 -21 10 -21 15 0 33 -4 40
-8 7 -5 23 -10 36 -11 17 -2 22 2 21 21 0 13 -6 27 -13 32 -8 5 1 8 22 8 31 0
33 -2 18 -13 -15 -12 -15 -15 -2 -25 13 -9 12 -10 -3 -5 -11 3 -16 2 -12 -5 4
-5 16 -7 27 -3 11 3 18 2 15 -3 -3 -5 7 -9 23 -8 16 0 28 2 28 5 -1 18 4 23
11 11 14 -22 67 -22 67 0 0 10 -4 15 -8 13 -4 -3 -8 0 -8 5 0 6 7 11 15 11 8
0 15 5 15 10 0 6 5 10 10 10 6 0 3 -11 -5 -24 -15 -23 -15 -25 6 -36 14 -8 19
-8 15 -1 -10 15 7 14 22 -1 7 -7 12 -8 12 -2 0 5 9 10 20 11 11 1 18 -2 15 -7
-3 -4 5 -6 17 -2 20 5 20 6 3 12 -10 3 -19 14 -21 23 -2 15 1 15 23 -3 14 -11
29 -17 33 -15 5 3 11 1 15 -5 4 -6 11 -8 16 -4 5 3 7 10 3 15 -3 5 -11 6 -17
2 -17 -10 15 30 33 42 8 5 19 10 23 10 4 0 12 7 17 15 6 9 10 10 10 3 0 -6 -5
-15 -10 -18 -6 -4 -7 -12 -3 -18 4 -8 1 -7 -9 1 -9 7 -19 9 -22 4 -3 -5 6 -14
20 -21 15 -6 23 -7 19 -1 -4 6 3 8 17 6 13 -3 27 -5 31 -5 5 -1 6 -5 3 -9 -3
-5 1 -9 9 -9 8 0 13 3 10 5 -3 3 -1 10 5 16 5 7 5 18 1 25 -6 9 -11 10 -15 2
-4 -6 -2 -11 4 -11 6 0 8 -5 4 -11 -4 -8 -9 -7 -15 2 -10 16 9 41 24 32 7 -4
8 1 4 13 -7 18 -7 18 8 0 8 -11 15 -16 15 -10 0 5 7 0 15 -10 10 -13 15 -15
15 -6 0 7 3 10 7 7 8 -9 43 22 43 37 -1 6 -9 2 -18 -9 -10 -11 -23 -21 -29
-22 -15 -3 -25 25 -11 33 7 4 8 3 4 -4 -4 -7 -1 -12 9 -12 10 0 13 5 9 13 -4
6 -4 9 1 5 11 -11 36 12 28 25 -3 5 -1 7 5 4 10 -7 10 -34 0 -67 -3 -8 -3 -12
-1 -7 3 4 9 5 14 2 5 -4 6 2 2 12 -6 16 -5 17 12 3 11 -9 16 -10 11 -2 -4 6
-2 12 3 12 6 0 11 5 11 11 0 8 -5 8 -15 -1 -10 -9 -15 -9 -15 -1 0 6 5 11 11
11 5 0 7 6 3 13 -6 9 -4 9 8 -1 14 -11 19 -9 32 10 9 12 16 16 16 9 0 -7 6
-11 14 -8 10 4 13 1 9 -9 -4 -12 -8 -12 -21 -2 -14 12 -14 11 -1 -9 8 -14 16
-18 20 -11 4 6 11 8 17 4 14 -8 2 37 -12 46 -7 5 -7 8 2 8 7 0 15 -7 19 -16 3
-9 15 -14 32 -12 17 2 25 -2 23 -10 -1 -8 2 -11 8 -7 17 10 -10 36 -30 30 -10
-3 -20 0 -23 8 -7 18 20 16 53 -3 32 -18 50 -21 50 -8 0 6 -6 8 -14 5 -7 -3
-20 3 -30 14 -20 24 -20 28 2 24 9 -1 16 -7 15 -12 -2 -11 45 -9 55 3 4 4 0 5
-9 1 -17 -6 -39 10 -39 28 0 5 5 2 11 -7 5 -9 16 -15 24 -12 8 4 12 10 9 15
-3 5 -10 6 -16 3 -7 -4 -8 -2 -4 4 10 16 46 -7 39 -25 -3 -7 0 -13 7 -13 6 0
8 5 5 10 -3 6 -2 10 4 10 6 0 8 6 5 14 -7 18 12 30 22 15 5 -8 3 -9 -5 -4 -10
6 -11 3 -2 -14 14 -25 23 -28 14 -3 -6 15 -5 16 12 2 18 -14 18 -14 2 9 -21
31 -6 56 24 40 19 -10 18 -29 -2 -29 -6 0 -8 4 -4 9 3 5 1 12 -4 15 -5 4 -8
-2 -7 -11 4 -23 21 -27 39 -9 8 8 18 12 23 8 5 -4 3 0 -4 9 -6 9 -8 19 -4 24
4 4 -3 4 -15 1 -23 -7 -40 8 -22 20 7 4 9 3 5 -4 -9 -15 38 -9 58 7 12 10 16
9 24 -5 8 -15 10 -15 15 0 4 9 13 13 22 10 8 -3 12 -11 8 -17 -3 -6 -1 -7 5
-3 9 5 9 13 2 27 -6 10 -13 19 -16 19 -3 0 -2 -6 2 -13 4 -6 4 -9 -1 -5 -4 4
-14 3 -22 -3 -8 -7 -13 -8 -13 -1 0 5 7 12 15 16 9 3 12 12 8 23 -5 16 -4 16
9 -1 8 -10 20 -16 26 -12 6 3 16 -2 22 -11 10 -17 10 -17 8 1 -2 10 7 25 21
34 24 16 24 16 18 -7 -4 -17 -3 -21 5 -13 14 14 2 46 -13 36 -8 -5 -9 -3 -4 6
5 8 3 11 -6 8 -8 -3 -13 -12 -11 -19 3 -11 1 -11 -9 -2 -16 16 -7 25 25 28 14
2 27 -3 30 -11 3 -8 13 -13 23 -13 17 1 17 2 1 6 -10 2 -18 13 -18 23 0 14 -5
18 -17 13 -15 -6 -16 -5 -3 9 11 11 17 12 25 4 17 -20 50 -42 41 -28 -4 7 -2
12 6 12 9 0 9 3 -2 10 -14 9 -13 11 9 14 5 0 13 4 17 8 4 4 14 2 23 -4 13 -10
14 -10 4 2 -16 17 -17 50 -2 50 5 0 8 -4 5 -8 -2 -4 -1 -14 5 -22 6 -11 9 -12
9 -2 0 7 4 10 10 7 6 -3 7 1 4 9 -6 15 -41 32 -57 28 -5 -1 -6 2 -2 8 3 6 12
7 18 3 6 -4 31 -8 54 -8 35 -2 41 1 32 12 -10 11 -15 11 -27 1 -13 -11 -14
-11 -8 1 7 10 3 12 -13 6 -13 -4 -21 -2 -21 5 0 6 4 9 9 6 4 -3 19 3 31 14 25
21 42 28 22 8 -9 -9 -7 -14 6 -24 9 -8 22 -13 27 -13 6 0 3 4 -7 9 -10 6 -14
18 -11 30 3 12 0 20 -8 20 -7 0 -10 3 -6 6 3 3 12 2 19 -2 21 -14 56 -12 51 3
-4 9 -9 10 -17 4 -7 -6 -18 -4 -30 5 -11 8 -15 14 -10 14 6 0 15 -5 22 -12 8
-8 14 -5 23 15 7 15 16 27 21 27 5 0 7 4 4 8 -2 4 0 14 5 22 7 12 8 10 6 -7
-2 -11 -8 -27 -14 -35 -9 -10 -6 -13 15 -14 15 -1 21 1 15 3 -7 3 -13 9 -13
14 0 6 4 8 8 5 10 -6 9 35 -1 52 -5 6 -4 12 1 12 6 0 13 -7 16 -16 4 -9 9 -14
13 -11 3 4 12 2 20 -5 11 -8 12 -7 7 6 -4 11 -13 15 -22 11 -9 -3 -13 -3 -10
1 4 4 3 16 -3 28 -9 19 -9 20 4 3 13 -15 15 -16 21 -2 3 8 0 15 -7 15 -7 0 -3
6 8 12 11 6 28 21 38 32 10 12 16 15 12 9 -3 -7 -1 -13 4 -13 6 0 11 7 11 15
0 8 -5 15 -12 15 -6 0 -9 2 -6 5 12 12 39 -9 35 -26 -3 -11 -3 -19 -1 -19 5 0
21 40 22 54 0 5 6 13 14 18 10 8 9 9 -4 5 -16 -6 -35 20 -23 31 3 3 5 0 5 -6
0 -7 10 -10 23 -8 12 2 29 -2 37 -8 13 -10 13 -9 1 6 -7 10 -17 15 -22 12 -5
-3 -9 1 -9 8 0 10 -3 9 -11 -2 -9 -13 -10 -13 -5 0 3 8 9 22 12 31 7 20 55 48
74 42 10 -3 9 0 -2 7 -13 8 -24 8 -40 0 -21 -10 -21 -10 -6 3 10 8 15 17 11
21 -4 4 1 4 12 0 16 -6 18 -5 10 7 -5 8 -3 7 7 -3 9 -10 21 -18 27 -18 6 0 2
9 -9 20 -22 22 -26 40 -10 40 6 0 10 6 10 14 0 8 8 17 17 20 14 6 15 9 4 15
-10 7 -10 9 3 14 9 4 13 14 11 27 -2 11 0 18 5 15 5 -3 11 -1 15 5 3 5 2 10
-4 10 -5 0 -9 9 -8 20 1 11 5 20 10 20 5 0 7 -6 4 -14 -3 -8 -3 -17 1 -20 11
-11 11 -36 0 -30 -7 5 -8 2 -3 -6 5 -8 4 -11 -2 -7 -5 3 -10 0 -10 -8 0 -8 5
-15 11 -15 6 -1 -2 -12 -19 -26 -16 -15 -24 -23 -17 -20 6 4 12 2 12 -3 0 -6
4 -11 9 -11 5 0 8 8 7 17 0 10 4 17 10 16 6 -1 11 10 10 25 -1 15 4 26 11 25
12 -2 12 21 0 33 -9 10 -9 24 1 23 19 -3 32 2 32 12 0 8 -4 8 -13 1 -10 -8
-16 -5 -27 11 -12 20 -12 21 3 9 10 -8 17 -9 21 -3 4 6 14 7 24 4 10 -4 7 2
-8 14 -14 12 -27 19 -30 17 -2 -3 2 -9 10 -14 9 -6 10 -10 3 -10 -16 0 -26 17
-18 30 5 8 11 8 20 0 9 -7 15 -8 19 -1 4 6 14 8 24 5 15 -5 14 -4 -1 6 -17 11
-17 13 -2 30 9 10 14 24 10 29 -3 6 0 11 7 11 9 0 9 3 -2 10 -14 9 -6 15 15
10 6 -1 7 2 3 6 -4 4 -3 13 3 20 7 8 6 14 -2 20 -7 4 -9 3 -5 -4 3 -6 1 -14
-5 -18 -8 -5 -10 0 -6 18 5 20 2 28 -16 37 l-22 11 24 -6 c18 -5 22 -3 15 7
-5 9 2 8 19 -4 30 -19 37 -12 10 10 -10 8 -13 12 -7 9 7 -3 18 2 25 11 12 14
12 16 -1 8 -20 -12 -60 -15 -60 -4 0 5 3 8 8 8 24 -4 43 3 52 21 9 16 8 18 -5
14 -8 -3 -12 -11 -8 -18 4 -6 -1 -5 -10 3 -17 13 -14 36 4 26 5 -4 9 -1 9 5 0
6 5 8 12 4 6 -4 8 -3 4 4 -3 6 1 15 10 20 15 8 15 10 -1 15 -9 4 -13 12 -9 18
4 8 9 7 16 -2 8 -11 9 -11 5 1 -2 8 -8 15 -13 15 -5 0 -15 4 -21 8 -7 5 -18 5
-25 1 -7 -5 -8 -3 -4 5 5 7 14 10 21 7 7 -2 18 1 25 7 10 9 11 9 6 0 -4 -7 -3
-13 2 -13 23 0 19 30 -6 50 -15 11 -19 17 -9 14 24 -9 51 14 37 31 -6 7 -7 15
-3 17 4 3 2 3 -4 2 -7 -2 -13 1 -13 7 0 6 -4 7 -10 4 -5 -3 -10 -1 -10 4 0 6
5 11 12 11 6 0 3 10 -8 22 -10 13 -12 17 -4 11 13 -10 18 -8 28 8 7 11 18 17
24 13 7 -4 8 -3 4 4 -4 7 -2 12 5 12 7 0 10 3 7 6 -4 3 -17 -2 -31 -11 -20
-13 -27 -13 -33 -3 -4 7 -4 10 1 6 9 -9 35 9 35 24 0 6 -7 5 -15 -2 -9 -7 -18
-10 -22 -6 -3 3 0 6 8 6 12 0 11 2 -1 10 -12 8 -11 10 5 7 11 -1 25 -6 31 -9
13 -9 13 30 0 51 -7 11 -5 13 6 8 12 -4 14 -1 11 14 -3 10 -10 19 -15 19 -5 0
-6 -5 -2 -12 4 -6 3 -8 -3 -5 -7 4 -10 -5 -8 -23 3 -34 0 -36 -20 -16 -12 12
-12 15 0 20 8 3 12 12 9 20 -3 9 3 17 17 21 12 4 17 10 12 14 -17 11 -22 40
-9 53 11 11 10 16 -2 28 -14 13 -15 12 -9 -3 8 -20 -4 -29 -23 -16 -12 7 -12
9 -1 9 8 0 11 6 7 16 -4 10 -2 13 6 8 8 -5 9 -2 5 10 -4 10 -7 21 -7 24 0 4
-5 0 -11 -8 -9 -13 -10 -13 -6 0 2 8 10 14 16 12 6 -1 11 3 11 9 0 5 4 8 9 5
13 -8 7 22 -6 35 -8 8 -13 7 -18 -2 -6 -8 -4 -10 5 -4 9 6 11 4 5 -5 -6 -9 -4
-11 5 -5 9 6 11 4 5 -4 -6 -10 -11 -9 -24 3 -13 14 -14 18 -2 25 8 5 10 14 6
22 -5 8 1 6 12 -4 16 -14 20 -14 20 -3 0 8 -3 15 -6 14 -18 -2 -21 4 -11 22 6
11 16 17 22 14 7 -4 8 -2 4 5 -6 9 -11 9 -22 0 -17 -14 -18 -5 -3 24 7 12 8
19 4 15 -7 -7 -17 1 -43 33 -10 14 -10 18 3 23 9 3 14 2 11 -2 -2 -4 0 -14 5
-22 7 -11 8 -8 5 12 -2 15 -1 29 2 31 4 2 1 2 -5 1 -7 -2 -13 1 -13 6 0 6 6
10 13 10 18 1 -17 19 -44 23 -15 3 -23 11 -24 27 -2 22 -1 22 12 5 15 -22 50
-27 50 -9 0 7 -3 12 -6 12 -3 -1 -18 4 -33 12 -20 9 -26 19 -24 34 2 12 8 20
13 19 5 -1 9 7 9 17 0 17 -2 17 -16 5 -11 -10 -20 -11 -30 -4 -12 9 -11 10 4
5 13 -5 17 -2 12 9 -3 8 -2 14 2 12 4 -1 8 2 9 7 1 5 7 13 15 17 10 7 10 9 0
9 -7 0 -10 5 -7 10 4 6 1 9 -7 8 -8 -2 -12 4 -10 16 2 12 -1 16 -9 10 -8 -5
-11 -2 -6 8 6 17 -23 20 -35 3 -5 -6 -8 -6 -8 2 0 6 5 15 10 18 6 4 8 10 5 15
-3 5 3 14 12 20 16 10 16 10 -4 5 -28 -8 -38 9 -17 29 8 9 11 16 5 16 -6 0
-11 6 -11 13 0 8 -24 26 -52 41 -29 15 -42 24 -29 20 14 -3 21 -2 18 3 -4 5 0
10 8 10 9 0 14 -7 13 -16 -2 -9 4 -16 12 -16 8 0 22 -5 30 -10 13 -7 13 -6 2
7 -8 10 -20 14 -30 11 -15 -6 -15 -5 -3 10 11 14 11 17 0 18 -8 1 -17 1 -22 0
-4 -1 -5 10 -3 23 3 18 1 23 -10 19 -9 -3 -14 1 -14 12 0 9 -4 14 -9 11 -5 -3
-7 -16 -5 -29 4 -20 4 -20 -4 -2 -10 22 -4 55 9 55 5 0 9 4 9 8 0 11 -39 12
-45 1 -4 -5 -10 -7 -15 -4 -5 3 -2 18 7 34 11 18 14 34 8 47 -4 10 -7 24 -6
29 1 6 -4 4 -11 -3 -7 -7 -13 -18 -13 -25 0 -7 -10 -13 -22 -13 -12 -1 -20 2
-17 7 2 4 12 6 22 3 11 -4 9 2 -8 16 -14 12 -25 27 -25 32 0 5 -8 15 -18 23
-16 11 -16 13 -2 19 11 4 14 2 9 -6 -4 -7 -3 -8 5 -4 6 4 10 4 9 -1 -2 -4 0
-9 5 -10 19 -7 19 -1 -3 22 -23 25 -60 34 -60 15 0 -5 -4 -10 -8 -10 -5 0 -9
7 -9 15 0 8 4 12 8 9 4 -2 10 0 14 6 4 6 10 8 14 6 4 -3 8 1 8 9 0 8 -4 15 -9
15 -4 0 -8 -4 -8 -10 0 -5 -8 -10 -17 -10 -15 0 -16 2 -3 10 11 7 11 10 2 10
-7 0 -10 4 -7 10 4 6 -1 7 -12 3 -17 -6 -17 -5 0 14 9 11 17 24 17 29 0 5 -5
1 -11 -9 -7 -12 -17 -16 -31 -11 -11 3 -18 2 -15 -3 3 -5 -4 -10 -15 -10 -17
-2 -18 0 -6 10 7 7 22 22 33 35 18 22 18 23 0 16 -13 -5 -16 -4 -11 5 5 7 2
10 -6 9 -7 -2 -12 5 -12 15 2 23 -3 22 -17 -4 -9 -17 -8 -20 2 -14 8 5 10 4 5
-4 -4 -6 -4 -10 1 -9 4 2 9 0 11 -4 5 -17 1 -28 -10 -28 -6 0 -8 3 -5 7 12 11
-14 32 -31 26 -13 -4 -12 -2 3 10 17 13 18 17 5 33 -13 16 -13 17 1 12 9 -4
16 -1 16 7 0 10 -5 11 -19 4 -14 -7 -18 -6 -18 5 0 8 -10 18 -21 21 -17 6 -19
9 -8 16 11 7 10 9 -3 9 -21 0 -24 -18 -5 -26 8 -3 24 -19 37 -36 12 -17 18
-28 12 -24 -6 3 -12 3 -14 -2 -1 -4 -11 0 -20 10 -10 10 -13 18 -8 18 6 0 10
5 10 11 0 6 -7 9 -15 6 -8 -4 -17 -2 -20 4 -4 5 -12 6 -18 3 -8 -5 -8 -3 1 7
17 18 15 27 -8 34 -13 4 -20 15 -20 31 0 14 -4 23 -9 20 -5 -3 -7 -16 -5 -29
l5 -22 -10 23 c-6 12 -8 28 -5 35 3 8 -6 18 -21 25 -14 6 -25 20 -26 29 0 12
-4 8 -11 -10 l-10 -27 -19 22 c-14 16 -22 19 -25 11 -8 -19 -21 -16 -21 5 0
32 -3 42 -13 42 -5 0 -8 -6 -6 -12 1 -7 1 -10 -1 -5 -3 4 -10 4 -16 0 -9 -5
-9 -3 -1 8 6 8 11 25 12 39 1 18 -1 21 -8 10 -5 -8 -7 -17 -4 -21 2 -4 -4 -13
-13 -20 -14 -12 -16 -12 -8 1 13 21 13 49 1 47 -6 -1 -10 3 -9 10 2 7 -4 10
-12 7 -9 -4 -22 -1 -30 6 -9 8 -15 8 -15 2 0 -6 9 -14 20 -17 25 -8 26 -21 1
-21 -11 0 -19 3 -18 6 1 3 -5 16 -12 29 -8 14 -9 21 -2 17 6 -4 11 -2 11 4 0
7 -7 10 -15 7 -8 -4 -17 -2 -20 4 -4 5 -11 7 -16 4 -5 -4 -9 1 -9 10 0 10 5
13 12 9 6 -4 8 -3 5 3 -10 16 -50 8 -53 -12 -1 -9 -8 -23 -15 -29 -9 -8 -9 -6
0 12 12 22 7 27 -26 23 -6 -1 -14 6 -17 16 -8 23 -47 72 -44 54 2 -7 -3 -16
-11 -19 -8 -2 -11 0 -7 6 9 15 -2 39 -19 39 -8 0 -14 -3 -13 -6 2 -19 -3 -31
-13 -31 -6 0 -8 9 -3 22 6 19 5 21 -8 11 -8 -7 -18 -10 -21 -6 -4 3 -7 1 -7
-4 0 -6 6 -14 13 -16 9 -4 9 -6 0 -6 -19 -2 -27 21 -11 33 13 10 13 13 -1 28
-15 15 -17 15 -37 -1 -18 -14 -20 -21 -11 -37 6 -10 -3 -4 -20 14 -31 32 -68
48 -43 17 9 -10 9 -15 1 -15 -6 0 -11 5 -11 11 0 5 -5 7 -12 3 -7 -5 -8 -3 -3
6 6 10 4 12 -10 7 -9 -4 -24 -2 -33 5 -13 11 -14 9 -8 -12 6 -21 5 -22 -4 -8
-8 13 -8 24 1 39 8 16 8 24 -1 33 -8 8 -9 6 -4 -9 7 -17 6 -18 -8 -7 -11 9
-18 10 -23 2 -6 -9 1 -14 18 -11 4 1 2 -8 -5 -18 -7 -11 -17 -17 -22 -14 -6 4
-5 8 2 11 7 2 9 8 6 13 -3 6 -12 5 -22 -3 -12 -10 -16 -10 -19 0 -3 6 -9 10
-13 7 -5 -3 -7 -13 -4 -23 5 -14 4 -14 -4 -2 -14 19 3 40 28 35 13 -2 18 2 17
14 0 10 -6 18 -13 18 -7 0 -10 -7 -6 -16 5 -14 3 -14 -11 -2 -9 7 -17 10 -17
6 0 -4 -8 -1 -17 6 -11 10 -14 10 -9 2 5 -9 1 -13 -13 -13 -10 0 -21 -3 -24
-7 -2 -5 -2 -3 -1 4 2 6 -4 17 -12 23 -8 7 -14 9 -14 4 0 -5 -5 -2 -10 6 -9
13 -10 13 -10 0 0 -13 -1 -13 -10 0 -5 8 -10 10 -10 3 0 -15 -33 -10 -38 6 -3
9 -7 9 -18 0 -8 -6 -14 -8 -14 -5 0 4 -9 2 -19 -3 -22 -12 -47 10 -36 31 4 7
0 5 -8 -4 -16 -20 -32 -25 -21 -6 4 7 3 8 -4 4 -17 -10 -3 -35 18 -31 13 3 17
-1 13 -12 -3 -8 -9 -10 -12 -5 -3 5 -18 8 -33 8 -16 -1 -24 3 -20 9 13 21 9
31 -12 31 -15 0 -22 -7 -23 -20 -2 -19 -1 -19 8 -3 6 9 15 15 20 11 6 -3 2
-12 -10 -21 -28 -19 -27 -32 2 -27 20 4 20 4 2 -5 -24 -10 -36 -5 -33 16 2 9
-3 18 -10 20 -8 3 -10 -2 -6 -14 5 -15 4 -15 -5 -3 -6 8 -8 24 -6 35 3 11 2
14 -1 8 -3 -7 -10 -13 -15 -13 -6 0 -8 4 -4 9 3 5 2 12 -3 15 -4 2 -8 -6 -8
-19z m-24 -30 c0 -11 -7 -14 -24 -11 -14 2 -27 -1 -29 -7 -2 -6 -6 -4 -10 5
-4 12 -1 16 13 13 11 -2 22 0 25 6 9 14 25 11 25 -6z m285 4 c3 -5 -1 -6 -9
-3 -9 3 -16 1 -16 -5 0 -6 8 -11 17 -11 9 0 13 -3 10 -6 -4 -4 -20 -1 -37 6
-17 7 -27 16 -21 19 16 10 50 11 56 0z m-363 -17 c3 -10 0 -19 -6 -19 -7 0
-12 9 -12 19 0 10 3 18 7 18 4 0 9 -8 11 -18z m300 -6 c7 4 8 2 4 -5 -10 -15
-26 -4 -25 17 1 15 2 15 6 -1 2 -9 9 -14 15 -11z m108 10 c0 -6 5 -4 10 4 9
13 10 13 10 0 0 -12 2 -12 9 -2 5 9 8 2 8 -20 1 -25 -1 -28 -7 -13 -4 11 -12
21 -19 21 -6 1 -18 2 -26 3 -8 0 -15 5 -15 9 0 5 7 9 15 9 8 0 15 -5 15 -11z
m91 -39 l-23 -22 17 28 c10 15 20 25 23 22 3 -3 -5 -16 -17 -28z m-704 3 c-1
-12 -5 -16 -10 -11 -5 5 -6 14 -3 20 11 16 15 13 13 -9z m120 5 c0 -8 -4 -12
-9 -9 -5 3 -6 10 -3 15 9 13 12 11 12 -6z m890 -61 c-17 -18 -33 2 -17 21 10
12 15 13 21 4 4 -7 2 -18 -4 -25z m-1107 16 c0 -5 -2 -10 -4 -10 -3 0 -8 5
-11 10 -3 6 -1 10 4 10 6 0 11 -4 11 -10z m-161 -14 c9 -10 8 -15 -2 -19 -8
-3 -13 3 -13 14 0 23 0 23 15 5z m1201 -6 c0 -5 -5 -10 -11 -10 -5 0 -7 5 -4
10 3 6 8 10 11 10 2 0 4 -4 4 -10z m-1165 -9 c3 -5 2 -12 -3 -15 -5 -3 -9 1
-9 9 0 17 3 19 12 6z m-121 -11 c10 7 18 4 32 -12 11 -14 13 -18 3 -11 -12 10
-18 10 -28 0 -9 -9 -14 -9 -21 3 -5 8 -9 20 -9 25 0 6 3 4 6 -3 3 -9 9 -10 17
-2z m1446 0 c0 -5 -5 -10 -11 -10 -5 0 -8 -4 -5 -8 3 -5 -1 -9 -8 -9 -11 0
-12 4 -3 19 13 20 27 24 27 8z m51 -46 c5 -14 3 -21 -6 -21 -7 0 -10 8 -7 20
4 14 1 18 -9 15 -8 -3 -13 -12 -11 -19 3 -11 1 -12 -10 -1 -11 11 -10 14 2 22
20 13 32 8 41 -16z m-1551 -14 c0 -5 -4 -10 -10 -10 -5 0 -10 5 -10 10 0 6 5
10 10 10 6 0 10 -4 10 -10z m1660 -40 c0 -4 -6 -7 -12 -7 -7 0 -13 11 -13 24
0 21 1 22 13 6 6 -9 12 -20 12 -23z m34 -30 c-6 -5 -24 21 -24 34 0 6 6 1 14
-10 8 -10 12 -21 10 -24z m86 -35 c0 -8 -4 -15 -10 -15 -5 0 -7 7 -4 15 4 8 8
15 10 15 2 0 4 -7 4 -15z m190 -122 c0 -2 -9 1 -20 7 -16 9 -20 8 -20 -5 0 -8
5 -14 12 -12 7 1 13 -8 14 -20 1 -12 -2 -20 -7 -17 -4 2 -6 11 -2 20 3 9 0 14
-8 12 -9 -2 -15 8 -17 25 -3 28 -3 28 22 12 14 -10 26 -19 26 -22z m-2360 -33
c0 -5 -2 -10 -4 -10 -3 0 -8 5 -11 10 -3 6 -1 10 4 10 6 0 11 -4 11 -10z m-40
-36 c0 -8 -19 -13 -24 -6 -3 5 1 9 9 9 8 0 15 -2 15 -3z m2444 -2 c3 -5 -1 -9
-9 -9 -8 0 -12 4 -9 9 3 4 7 8 9 8 2 0 6 -4 9 -8z m196 -201 c0 -4 -6 -8 -13
-8 -8 0 -14 6 -14 13 0 7 6 10 14 7 7 -3 13 -8 13 -12z m-2894 -46 c-1 -8 -5
-17 -8 -21 -5 -4 -4 16 1 34 3 9 9 -1 7 -13z m2961 -1 c-3 -3 -12 -4 -19 -1
-8 3 -5 6 6 6 11 1 17 -2 13 -5z m-3010 -10 c-3 -4 -2 -15 4 -26 9 -17 8 -18
-9 -9 -15 8 -23 7 -33 -6 -12 -14 -11 -15 11 -9 21 6 22 5 7 -4 -15 -10 -16
-14 -5 -28 11 -15 11 -15 -3 -4 -13 10 -19 9 -30 -5 -12 -15 -12 -16 6 -9 15
5 17 4 8 -5 -16 -16 -38 -2 -23 16 8 10 8 15 0 20 -7 4 3 20 27 41 21 18 40
33 42 34 2 0 1 -3 -2 -6z m3103 -105 c0 -24 -27 -36 -43 -19 -9 10 -7 11 9 6
18 -6 21 -3 19 19 -2 14 1 23 6 19 5 -3 9 -14 9 -25z m-3208 -62 c-12 -7 -19
-16 -16 -20 4 -4 2 -7 -4 -7 -7 0 -12 4 -12 10 0 10 29 29 45 29 6 0 0 -5 -13
-12z m3231 -12 c-3 -9 -8 -14 -10 -11 -3 3 -2 9 2 15 9 16 15 13 8 -4z m-3196
-1 c-3 -3 -12 -4 -19 -1 -8 3 -5 6 6 6 11 1 17 -2 13 -5z m-37 -41 c0 -3 -9
-3 -20 0 -11 3 -20 1 -20 -4 0 -5 5 -9 10 -9 6 0 10 -5 10 -11 0 -8 -4 -9 -13
0 -8 6 -17 8 -20 4 -4 -3 1 -12 11 -20 9 -8 12 -12 6 -9 -7 3 -17 -1 -24 -9
-10 -12 -9 -15 5 -15 10 0 16 -3 12 -6 -3 -4 -14 -4 -23 0 -13 5 -14 9 -5 20
7 8 11 18 9 22 -6 21 22 52 42 47 11 -3 20 -8 20 -10z m3280 -17 c0 -3 -4 -8
-10 -11 -5 -3 -10 -1 -10 4 0 6 5 11 10 11 6 0 10 -2 10 -4z m4 -88 c-3 -4 -9
-8 -15 -8 -5 0 -9 4 -9 8 0 5 7 9 15 9 8 0 12 -4 9 -9z m46 -18 c6 -11 9 -20
8 -21 -20 -6 -50 -4 -55 4 -3 6 -1 7 5 3 8 -5 12 0 12 13 0 27 16 27 30 1z
m10 -84 c0 -6 -7 -1 -15 10 -8 10 -15 23 -15 28 0 6 7 1 15 -10 8 -10 15 -23
15 -28z m-3477 -13 c-4 -10 -2 -14 4 -10 5 3 10 0 10 -8 0 -8 -3 -14 -6 -13
-19 2 -22 -4 -10 -19 12 -14 12 -16 0 -8 -11 6 -13 4 -8 -8 4 -11 2 -14 -7
-11 -10 4 -14 43 -7 62 1 1 1 5 0 8 -1 6 21 23 28 24 1 0 -1 -7 -4 -17z m3543
-89 c1 -7 -4 -10 -12 -7 -8 3 -14 9 -14 15 0 5 -6 6 -12 2 -9 -5 -9 -2 1 9 7
9 11 18 7 18 -3 1 -10 2 -15 3 -5 0 -13 5 -18 10 -5 5 -3 6 5 2 7 -4 12 -2 12
6 1 15 43 -39 46 -58z m-31 -14 c3 -5 1 -10 -4 -10 -6 0 -11 5 -11 10 0 6 2
10 4 10 3 0 8 -4 11 -10z m-3572 -107 c-4 -10 -9 -11 -19 -2 -11 9 -12 15 -3
26 14 17 31 -1 22 -24z m3653 -75 c0 -16 -1 -16 -21 0 -11 9 -21 18 -23 18 -2
1 7 1 20 1 15 -1 24 -8 24 -19z m-13 -83 c-3 -9 -8 -14 -10 -11 -3 3 -2 9 2
15 9 16 15 13 8 -4z m21 -29 c-10 -8 -21 -12 -24 -10 -2 3 2 9 10 14 8 6 11
10 7 10 -5 0 -5 5 -1 11 4 8 9 8 17 0 8 -8 5 -15 -9 -25z m-3679 14 c3 -6 -1
-7 -9 -4 -18 7 -21 14 -7 14 6 0 13 -4 16 -10z m-11 -25 c3 -8 -4 -21 -17 -30
-12 -8 -16 -15 -8 -15 11 0 11 -3 1 -15 -10 -12 -10 -19 -2 -27 8 -8 9 -15 1
-25 -15 -17 -26 -17 -26 1 0 9 7 12 16 8 13 -4 12 -1 -3 16 -11 12 -14 22 -8
22 7 0 12 5 12 11 0 5 -6 7 -12 4 -7 -4 -1 4 15 17 15 13 24 27 21 31 -12 12
-26 8 -18 -5 4 -7 3 -8 -5 -4 -6 4 -9 12 -6 17 9 14 32 11 39 -6z m3706 -15
c0 -5 -4 -10 -10 -10 -5 0 -10 5 -10 10 0 6 5 10 10 10 6 0 10 -4 10 -10z
m-26 -40 c-6 -6 -10 -3 -10 10 0 13 4 16 10 10 7 -7 7 -13 0 -20z m-3679 -20
c3 -5 1 -10 -4 -10 -6 0 -11 5 -11 10 0 6 2 10 4 10 3 0 8 -4 11 -10z m-20
-87 c-1 -10 2 -24 8 -30 14 -18 2 -16 -17 2 -8 9 -13 22 -10 30 8 21 23 19 19
-2z m-12 -57 c4 -10 1 -13 -9 -9 -7 3 -14 9 -14 14 0 14 17 10 23 -5z m3749
-31 c6 -11 7 -17 3 -13 -5 4 -15 2 -24 -4 -13 -10 -14 -10 -3 2 13 15 17 34 4
26 -4 -2 -9 5 -9 17 -2 23 4 17 29 -28z m-3752 -10 c0 -8 -4 -16 -9 -19 -5 -3
-8 5 -7 18 1 25 16 26 16 1z m25 -35 c4 -6 -1 -7 -11 -3 -11 4 -15 3 -10 -5 3
-6 2 -13 -4 -17 -6 -4 -8 -11 -5 -16 4 -5 1 -9 -4 -9 -14 0 -14 13 1 28 9 9 9
12 -2 12 -13 0 -13 2 0 10 19 12 27 12 35 0z m-11 -68 c-6 -4 -13 -14 -16 -22
-3 -11 -6 -9 -10 6 -4 15 0 20 16 22 11 0 16 -2 10 -6z m6 -35 c0 -2 -8 -11
-18 -20 -15 -14 -19 -15 -19 -2 0 8 4 12 8 9 4 -2 10 0 14 6 6 10 15 14 15 7z
m0 -57 c0 -5 -9 -8 -20 -7 -22 1 -27 13 -7 20 14 5 27 -1 27 -13z m3728 -53
c7 -5 10 -12 7 -17 -7 -12 -32 -2 -39 15 -5 14 11 15 32 2z m-4 -66 c3 -4 -4
-7 -14 -7 -11 0 -22 6 -24 12 -5 12 31 8 38 -5z m-3684 -15 c0 -3 -4 -8 -10
-11 -5 -3 -10 -1 -10 4 0 6 5 11 10 11 6 0 10 -2 10 -4z m3650 -40 c0 -2 -7
-7 -16 -10 -8 -3 -12 -2 -9 4 6 10 25 14 25 6z m15 -25 c6 -11 -33 -36 -43
-27 -3 3 0 6 6 6 7 0 12 7 12 15 0 17 16 20 25 6z m-68 -175 c-3 -7 0 -19 6
-25 6 -6 9 -11 7 -12 -3 0 -16 -2 -29 -3 -20 -2 -21 -1 -9 8 15 11 18 17 18
36 0 6 3 10 6 10 3 0 4 -6 1 -14z m-7 -66 c-20 -13 -33 -13 -25 0 3 6 14 10
23 10 15 0 15 -2 2 -10z m-4 -35 c-9 -9 -14 -21 -11 -26 8 -12 -6 -11 -25 1
-13 8 -12 10 3 10 20 0 23 16 5 23 -7 2 -5 3 4 2 10 -2 21 1 24 7 3 5 8 7 11
4 3 -3 -2 -12 -11 -21z m-75 -18 c-10 -9 -11 -8 -5 6 3 10 9 15 12 12 3 -3 0
-11 -7 -18z m-3394 -117 c2 -20 -8 -26 -20 -13 -4 3 -2 12 4 20 15 17 14 17
16 -7z m38 -29 c3 -5 0 -13 -6 -17 -7 -4 -9 -3 -5 4 3 5 0 13 -6 15 -9 4 -10
6 -1 6 6 1 14 -3 18 -8z m3303 -26 c-3 -3 -9 2 -12 12 -6 14 -5 15 5 6 7 -7
10 -15 7 -18z m-3241 -90 c0 -8 -4 -12 -9 -9 -5 3 -6 10 -3 15 9 13 12 11 12
-6z m-20 -34 c0 -11 -5 -18 -9 -15 -4 3 -5 11 -1 19 7 21 12 19 10 -4z m38
-11 c3 -6 -1 -7 -9 -4 -18 7 -21 14 -7 14 6 0 13 -4 16 -10z m34 -74 c-3 -3
-11 5 -18 17 -13 21 -12 21 5 5 10 -10 16 -20 13 -22z m24 -16 c3 -11 1 -18
-4 -14 -5 3 -9 12 -9 20 0 20 7 17 13 -6z m3041 -31 c-3 -5 2 -9 11 -9 9 0 13
-5 10 -10 -5 -8 -11 -7 -21 1 -8 6 -12 14 -9 17 3 3 -1 12 -8 21 -11 14 -10
14 5 2 10 -7 15 -17 12 -22z m-2981 -34 c-3 -9 -8 -14 -10 -11 -3 3 -2 9 2 15
9 16 15 13 8 -4z m172 -205 l20 -25 -22 19 c-13 11 -23 24 -23 29 0 6 1 8 3 6
1 -2 11 -15 22 -29z m5 -30 c8 -5 11 -10 5 -10 -5 0 -17 5 -25 10 -8 5 -10 10
-5 10 6 0 17 -5 25 -10z m64 -36 c3 -8 2 -12 -4 -9 -6 3 -10 10 -10 16 0 14 7
11 14 -7z m51 -42 c-3 -3 -11 0 -18 7 -9 10 -8 11 6 5 10 -3 15 -9 12 -12z
m2360 -9 c-2 -10 -4 -21 -4 -25 -1 -9 -28 -4 -38 7 -5 4 -2 5 6 0 11 -6 13 -4
8 9 -4 9 -3 14 2 11 5 -3 12 -1 16 5 9 15 14 12 10 -7z m-41 -49 c5 -14 4 -15
-9 -4 -17 14 -19 20 -6 20 5 0 12 -7 15 -16z m-104 -77 c0 -7 -4 -6 -10 3 -7
11 -10 11 -10 2 0 -7 -5 -10 -11 -6 -8 4 -7 9 2 15 15 9 29 3 29 -14z m-86
-17 c-6 -6 -10 -3 -10 10 0 13 4 16 10 10 7 -7 7 -13 0 -20z m-1899 -10 c3 -5
1 -10 -4 -10 -6 0 -11 5 -11 10 0 6 2 10 4 10 3 0 8 -4 11 -10z m40 -18 c-3
-3 -11 0 -18 7 -9 10 -8 11 6 5 10 -3 15 -9 12 -12z m1825 8 c0 -5 -5 -10 -11
-10 -5 0 -7 5 -4 10 3 6 8 10 11 10 2 0 4 -4 4 -10z m-1720 -60 c0 -5 -2 -10
-4 -10 -3 0 -8 5 -11 10 -3 6 -1 10 4 10 6 0 11 -4 11 -10z m473 -183 c4 3 1
13 -5 22 -10 13 -10 14 2 4 9 -9 17 -9 26 -2 8 7 14 6 20 -3 4 -7 4 -10 0 -6
-9 7 -46 -22 -46 -35 0 -5 7 -4 15 3 9 8 15 9 15 2 0 -20 -20 -23 -42 -8 -12
9 -18 16 -13 16 5 0 4 5 -3 12 -7 7 -12 16 -12 22 0 5 8 -1 19 -12 10 -12 21
-19 24 -15z m582 24 c3 -5 2 -12 -3 -15 -5 -3 -9 1 -9 9 0 17 3 19 12 6z m95
-6 c-6 -8 -9 -18 -6 -24 3 -5 -1 -8 -9 -7 -9 1 -15 5 -15 9 0 4 0 12 0 18 0 5
5 7 10 4 6 -3 10 -1 10 4 0 6 5 11 11 11 8 0 8 -4 -1 -15z m-578 -9 c7 4 8 2
4 -4 -11 -18 -26 -14 -25 6 0 10 3 12 6 4 2 -6 10 -9 15 -6z m453 -25 c-3 -6
-11 -8 -17 -5 -8 5 -9 1 -4 -11 5 -15 4 -16 -9 -5 -12 10 -13 15 -3 21 6 4 16
5 20 3 11 -7 10 10 -2 24 -5 7 -3 6 6 -2 9 -8 13 -19 9 -25z m-268 15 c-4 -9
1 -17 11 -21 9 -3 27 -13 40 -23 21 -17 22 -18 3 -18 -11 0 -17 4 -15 8 3 4
-8 14 -24 22 -27 14 -40 46 -19 46 5 0 7 -7 4 -14z m198 4 c3 -5 1 -10 -4 -10
-6 0 -11 5 -11 10 0 6 2 10 4 10 3 0 8 -4 11 -10z m-138 -15 c0 -8 -4 -15 -9
-15 -10 0 -11 14 -1 23 9 10 10 9 10 -8z m120 -23 c-1 -14 -9 -18 -33 -18 -20
1 -30 5 -27 12 2 7 16 11 29 9 18 -2 24 2 20 12 -3 8 -2 11 3 8 6 -3 9 -13 8
-23z m-284 1 c11 -10 -13 -32 -28 -27 -11 5 -12 9 -2 20 14 15 21 17 30 7z
m67 -5 c0 -9 4 -8 10 2 7 11 10 11 10 2 0 -7 5 -10 10 -7 15 9 12 -1 -3 -14
-11 -8 -18 -6 -32 9 -10 11 -13 20 -7 20 7 0 12 -6 12 -12z"/>
<path d="M3600 2721 c0 -6 4 -13 10 -16 6 -3 7 1 4 9 -7 18 -14 21 -14 7z"/>
<path d="M1737 3838 c2 -5 10 -8 18 -8 8 0 16 3 18 8 3 4 -5 7 -18 7 -13 0
-21 -3 -18 -7z"/>
<path d="M1656 3827 c4 -10 3 -17 -2 -16 -20 3 -32 -2 -38 -18 -6 -15 -5 -15
13 1 13 12 21 14 26 6 8 -13 35 6 34 24 0 6 -3 6 -6 -2 -4 -10 -9 -9 -19 5
-13 17 -14 17 -8 0z"/>
<path d="M1506 3822 c-3 -5 1 -9 9 -9 8 0 12 4 9 9 -3 4 -7 8 -9 8 -2 0 -6 -4
-9 -8z"/>
<path d="M2250 3820 c0 -5 5 -10 11 -10 5 0 7 5 4 10 -3 6 -8 10 -11 10 -2 0
-4 -4 -4 -10z"/>
<path d="M1475 3809 c-4 -6 -5 -12 -2 -15 2 -3 7 2 10 11 7 17 1 20 -8 4z"/>
<path d="M1370 3779 c0 -5 5 -7 10 -4 6 3 10 8 10 11 0 2 -4 4 -10 4 -5 0 -10
-5 -10 -11z"/>
<path d="M2386 3782 c2 -3 -1 -11 -6 -17 -8 -9 -6 -14 4 -18 21 -8 31 12 14
28 -8 7 -13 10 -12 7z"/>
<path d="M1410 3771 c0 -7 -4 -10 -9 -6 -5 3 -12 1 -15 -4 -4 -5 -2 -12 3 -15
11 -7 36 22 27 31 -3 3 -6 1 -6 -6z"/>
<path d="M1295 3760 c-3 -5 -1 -10 4 -10 6 0 11 5 11 10 0 6 -2 10 -4 10 -3 0
-8 -4 -11 -10z"/>
<path d="M2423 3754 c0 -7 6 -10 14 -7 7 3 13 8 13 12 0 4 -6 8 -13 8 -8 0
-14 -6 -14 -13z"/>
<path d="M2470 3750 c-13 -8 -12 -10 3 -10 12 0 16 -4 11 -12 -5 -9 -2 -9 9 1
18 14 23 26 8 17 -5 -4 -11 -2 -13 4 -2 6 -8 6 -18 0z"/>
<path d="M1290 3725 c29 -15 46 -19 49 -12 2 6 -1 13 -8 15 -6 2 -8 9 -4 15 4
7 0 7 -9 -1 -13 -10 -22 -11 -37 -3 -11 6 -23 11 -28 11 -4 -1 12 -12 37 -25z"/>
<path d="M1115 3690 c-3 -6 1 -7 9 -4 18 7 21 14 7 14 -6 0 -13 -4 -16 -10z"/>
<path d="M2691 3674 c0 -11 3 -14 6 -6 3 7 2 16 -1 19 -3 4 -6 -2 -5 -13z"/>
<path d="M2711 3651 c-7 -5 -11 -13 -7 -19 7 -11 31 -10 43 2 4 4 4 7 -2 6
-21 -5 -29 1 -15 10 8 5 11 10 5 10 -5 0 -16 -4 -24 -9z"/>
<path d="M950 3600 c-9 -6 -10 -10 -3 -10 6 0 15 5 18 10 8 12 4 12 -15 0z"/>
<path d="M2867 3578 c2 -5 10 -8 18 -8 8 0 16 3 18 8 3 4 -5 7 -18 7 -13 0
-21 -3 -18 -7z"/>
<path d="M900 3560 c-11 -7 -11 -10 -2 -10 7 0 11 -4 7 -10 -3 -5 -11 -7 -18
-5 -18 7 -41 -11 -32 -24 5 -9 13 -8 30 3 18 12 25 12 28 3 2 -6 4 3 3 21 0
17 -1 32 -1 32 0 0 -7 -5 -15 -10z m-10 -34 c0 -2 -7 -7 -16 -10 -8 -3 -12 -2
-9 4 6 10 25 14 25 6z"/>
<path d="M2965 3519 c-4 -6 -4 -13 -1 -16 3 -4 6 -1 6 6 0 7 5 9 12 5 7 -4 8
-3 4 4 -9 15 -13 15 -21 1z"/>
<path d="M2984 3475 c0 -13 4 -21 9 -18 4 3 17 -3 27 -12 17 -16 18 -16 15 2
-2 10 -4 20 -5 23 -1 3 -1 10 0 15 1 6 -2 7 -5 3 -4 -4 -15 -3 -24 2 -14 7
-17 4 -17 -15z m37 -12 c13 -17 13 -17 -6 -3 -11 8 -22 16 -24 17 -2 2 0 3 6
3 6 0 17 -8 24 -17z"/>
<path d="M767 3479 c7 -7 15 -10 18 -7 3 3 -2 9 -12 12 -14 6 -15 5 -6 -5z"/>
<path d="M730 3460 c-9 -6 -10 -10 -3 -10 6 0 15 5 18 10 8 12 4 12 -15 0z"/>
<path d="M3144 3361 c1 -18 33 -23 33 -5 0 10 -4 11 -13 3 -9 -7 -14 -6 -17 3
-3 9 -4 9 -3 -1z"/>
<path d="M580 3340 c-9 -6 -10 -10 -3 -10 6 0 15 5 18 10 8 12 4 12 -15 0z"/>
<path d="M531 3275 c1 -5 1 -19 0 -30 -2 -20 -2 -20 -16 -1 -8 11 -15 14 -15
8 0 -7 0 -15 0 -19 -1 -14 31 -11 48 5 10 10 16 16 13 15 -2 -2 -10 5 -18 15
-7 9 -13 13 -12 7z"/>
<path d="M3315 3180 c3 -5 8 -10 11 -10 2 0 4 5 4 10 0 6 -5 10 -11 10 -5 0
-7 -4 -4 -10z"/>
<path d="M3374 3160 c0 -13 4 -16 10 -10 7 7 7 13 0 20 -6 6 -10 3 -10 -10z"/>
<path d="M398 3133 c7 -3 16 -2 19 1 4 3 -2 6 -13 5 -11 0 -14 -3 -6 -6z"/>
<path d="M437 3125 c-8 -8 -18 -11 -22 -7 -5 4 -5 2 -1 -5 8 -15 32 -7 40 13
7 18 1 18 -17 -1z"/>
<path d="M3415 3100 c3 -5 8 -10 11 -10 2 0 4 5 4 10 0 6 -5 10 -11 10 -5 0
-7 -4 -4 -10z"/>
<path d="M335 3060 c-3 -5 -1 -10 4 -10 6 0 11 5 11 10 0 6 -2 10 -4 10 -3 0
-8 -4 -11 -10z"/>
<path d="M3443 3022 c-9 -6 -7 -11 7 -20 12 -7 20 -8 20 -2 0 5 -6 10 -12 10
-9 0 -8 4 2 10 8 5 11 10 5 10 -5 0 -15 -4 -22 -8z"/>
<path d="M245 2920 c-16 -7 -17 -9 -3 -9 9 -1 20 4 23 9 7 11 7 11 -20 0z"/>
<path d="M3499 2913 c-13 -17 -13 -17 6 -3 11 8 22 16 24 17 2 2 0 3 -6 3 -6
0 -17 -8 -24 -17z"/>
<path d="M3561 2874 c0 -11 3 -14 6 -6 3 7 2 16 -1 19 -3 4 -6 -2 -5 -13z"/>
<path d="M177 2791 c-4 -17 -3 -21 5 -13 5 5 8 16 6 23 -3 8 -7 3 -11 -10z"/>
<path d="M143 2738 c-3 -7 -1 -8 6 -4 6 4 14 1 17 -7 5 -13 34 -20 34 -8 0 13
-50 29 -57 19z"/>
<path d="M115 2660 c-3 -5 -1 -10 4 -10 6 0 11 5 11 10 0 6 -2 10 -4 10 -3 0
-8 -4 -11 -10z"/>
<path d="M3653 2635 c0 -8 4 -12 9 -9 4 3 8 9 8 15 0 5 -4 9 -8 9 -5 0 -9 -7
-9 -15z"/>
<path d="M3731 2484 c0 -11 3 -14 6 -6 3 7 2 16 -1 19 -3 4 -6 -2 -5 -13z"/>
<path d="M3704 2453 c2 -9 11 -20 22 -24 15 -5 20 -2 20 12 0 10 -2 16 -4 14
-3 -2 -13 0 -22 5 -14 8 -18 6 -16 -7z"/>
<path d="M56 2333 c-6 -14 -5 -15 5 -6 7 7 10 15 7 18 -3 3 -9 -2 -12 -12z"/>
<path d="M3780 2084 c0 -5 7 -18 15 -28 8 -11 15 -16 15 -10 0 5 -7 18 -15 28
-8 11 -15 16 -15 10z"/>
<path d="M3800 1996 c0 -8 4 -17 9 -20 5 -4 7 3 4 14 -6 23 -13 26 -13 6z"/>
<path d="M3783 1778 c-11 -19 -13 -39 -2 -32 6 3 18 0 27 -8 15 -11 15 -11 5
3 -7 9 -9 20 -5 24 4 5 1 4 -7 0 -11 -6 -13 -4 -8 8 7 20 2 22 -10 5z"/>
<path d="M12 1693 c-6 -2 -10 -9 -6 -14 8 -14 21 -11 21 6 0 8 -1 15 -1 14 -1
0 -7 -3 -14 -6z"/>
<path d="M3790 1659 c0 -5 5 -7 10 -4 6 3 10 8 10 11 0 2 -4 4 -10 4 -5 0 -10
-5 -10 -11z"/>
<path d="M5 1639 c2 -10 8 -27 14 -38 6 -11 8 -28 5 -38 -5 -15 -4 -15 5 -3 9
13 11 13 11 0 0 -13 1 -13 10 0 7 11 5 18 -5 26 -18 13 -20 28 -3 18 7 -4 8
-3 4 5 -4 6 -11 9 -16 6 -12 -7 -20 21 -9 32 6 6 4 10 -5 10 -8 0 -13 -8 -11
-18z"/>
<path d="M86 1405 c-11 -8 -14 -15 -7 -15 7 0 10 -4 6 -9 -3 -5 -1 -12 5 -16
6 -4 8 -11 5 -16 -4 -5 -2 -9 4 -9 19 0 23 21 7 39 -12 13 -13 20 -4 29 16 16
7 14 -16 -3z"/>
<path d="M3722 1404 c10 -10 20 -16 22 -13 3 3 -5 11 -17 18 -21 13 -21 12 -5
-5z"/>
<path d="M54 1372 c0 -10 6 -19 13 -19 8 0 9 6 2 19 -5 10 -11 18 -12 18 -2 0
-3 -8 -3 -18z"/>
<path d="M88 1323 c6 -2 9 -10 6 -15 -4 -7 -2 -8 5 -4 13 9 5 26 -12 25 -9 0
-8 -2 1 -6z"/>
<path d="M3710 1299 c0 -5 5 -7 10 -4 6 3 10 8 10 11 0 2 -4 4 -10 4 -5 0 -10
-5 -10 -11z"/>
<path d="M115 1220 c3 -5 8 -10 11 -10 2 0 4 5 4 10 0 6 -5 10 -11 10 -5 0 -7
-4 -4 -10z"/>
<path d="M130 1159 c0 -5 5 -7 10 -4 6 3 10 8 10 11 0 2 -4 4 -10 4 -5 0 -10
-5 -10 -11z"/>
<path d="M204 1092 c3 -6 -2 -13 -11 -15 -16 -4 -16 -5 -1 -6 21 -1 32 15 17
25 -7 4 -9 3 -5 -4z"/>
<path d="M220 1039 c-13 -9 -12 -10 2 -5 22 6 34 -10 13 -18 -8 -3 -15 -11
-14 -18 0 -10 2 -10 6 0 2 6 9 12 14 12 6 0 7 -4 4 -10 -3 -5 -1 -10 4 -10 13
0 9 36 -5 50 -6 6 -15 5 -24 -1z"/>
<path d="M3546 1021 c-3 -5 1 -14 8 -20 16 -13 32 2 21 19 -8 12 -22 13 -29 1z
m24 -11 c0 -5 -2 -10 -4 -10 -3 0 -8 5 -11 10 -3 6 -1 10 4 10 6 0 11 -4 11
-10z"/>
<path d="M3489 923 c-6 -7 -8 -13 -3 -13 5 0 2 -5 -6 -10 -13 -8 -13 -10 1
-10 9 0 20 7 23 16 3 9 13 14 21 11 9 -4 12 -1 9 7 -6 17 -31 16 -45 -1z"/>
<path d="M310 890 c0 -5 5 -10 11 -10 5 0 7 5 4 10 -3 6 -8 10 -11 10 -2 0 -4
-4 -4 -10z"/>
<path d="M306 838 c3 -4 11 -5 19 -1 21 7 19 12 -4 10 -11 0 -18 -5 -15 -9z"/>
<path d="M3476 833 c-6 -14 -5 -15 5 -6 7 7 10 15 7 18 -3 3 -9 -2 -12 -12z"/>
<path d="M399 763 c-13 -16 -12 -17 4 -4 9 7 17 15 17 17 0 8 -8 3 -21 -13z"/>
<path d="M3368 758 c-10 -10 -16 -18 -14 -18 2 0 12 -3 22 -7 14 -5 16 -3 11
11 -5 14 -3 17 8 12 8 -3 15 -1 15 3 0 18 -25 17 -42 -1z"/>
<path d="M3350 721 c0 -5 7 -11 14 -14 10 -4 13 -1 9 9 -6 15 -23 19 -23 5z"/>
<path d="M484 671 c4 -5 1 -11 -6 -13 -9 -3 -9 -6 0 -12 7 -4 12 -2 12 4 0 6
5 8 13 4 8 -5 8 -2 -2 9 -14 18 -26 23 -17 8z"/>
<path d="M3316 658 c3 -5 10 -6 15 -3 13 9 11 12 -6 12 -8 0 -12 -4 -9 -9z"/>
<path d="M500 605 c0 -2 6 -8 13 -14 10 -8 14 -7 14 2 0 8 -6 14 -14 14 -7 0
-13 -1 -13 -2z"/>
<path d="M558 593 c-10 -2 -18 -9 -18 -14 0 -6 8 -5 20 1 11 6 20 13 20 15 0
3 -1 4 -2 4 -2 -1 -11 -3 -20 -6z"/>
<path d="M620 486 c0 -2 8 -10 18 -17 15 -13 16 -12 3 4 -13 16 -21 21 -21 13z"/>
<path d="M666 463 c6 -4 14 -15 17 -23 5 -11 6 -9 4 4 -1 11 -9 21 -17 23 -10
3 -11 2 -4 -4z"/>
<path d="M3090 419 c0 -5 5 -7 10 -4 6 3 10 8 10 11 0 2 -4 4 -10 4 -5 0 -10
-5 -10 -11z"/>
<path d="M804 392 c3 -6 -2 -13 -11 -15 -13 -3 -11 -5 7 -7 14 -1 32 -2 40 -1
11 1 9 -3 -5 -14 -19 -16 -19 -16 8 -11 16 3 27 0 27 -6 0 -6 3 -8 6 -5 4 4 1
14 -6 22 -16 19 -75 52 -66 37z"/>
<path d="M923 311 c0 -11 5 -18 9 -15 4 3 5 11 1 19 -7 21 -12 19 -10 -4z"/>
<path d="M2842 298 c-16 -16 -15 -28 2 -28 9 0 14 9 13 20 -1 11 -2 20 -2 20
-1 0 -6 -5 -13 -12z"/>
<path d="M2886 283 c-6 -14 -5 -15 5 -6 7 7 10 15 7 18 -3 3 -9 -2 -12 -12z"/>
<path d="M896 282 c-3 -5 1 -9 9 -9 8 0 12 4 9 9 -3 4 -7 8 -9 8 -2 0 -6 -4
-9 -8z"/>
<path d="M1004 258 c19 -30 28 -35 24 -17 -2 6 2 13 8 16 7 2 11 -2 10 -9 -1
-14 5 -18 31 -18 14 0 14 2 -3 21 -11 12 -26 18 -38 15 -11 -3 -27 0 -35 7
-10 8 -9 3 3 -15z"/>
<path d="M995 220 c3 -5 8 -10 11 -10 2 0 4 5 4 10 0 6 -5 10 -11 10 -5 0 -7
-4 -4 -10z"/>
<path d="M1152 204 c-12 -8 -22 -21 -22 -27 0 -7 4 -6 10 3 7 11 10 11 10 2 0
-7 5 -10 10 -7 6 3 10 -1 10 -9 0 -9 5 -16 10 -16 7 0 7 6 0 20 -6 11 -16 20
-22 20 -7 0 -3 7 8 15 26 19 14 19 -14 -1z"/>
<path d="M1105 200 c-3 -6 1 -7 9 -4 18 7 21 14 7 14 -6 0 -13 -4 -16 -10z"/>
<path d="M1190 181 c0 -5 5 -13 10 -16 6 -3 10 -2 10 4 0 5 -4 13 -10 16 -5 3
-10 2 -10 -4z"/>
<path d="M2469 135 c-1 -3 -2 -8 -3 -12 -1 -5 -5 -13 -9 -20 -4 -6 -3 -15 3
-18 6 -4 9 -1 8 7 -2 7 3 12 10 11 6 -2 12 2 12 7 0 6 -5 10 -11 10 -5 0 -7 5
-4 10 3 6 4 10 1 10 -3 0 -7 -2 -7 -5z"/>
<path d="M2308 77 c7 -8 10 -16 7 -19 -3 -2 1 -5 9 -5 18 0 10 24 -11 31 -12
5 -13 4 -5 -7z"/>
<path d="M1508 53 c6 -2 9 -10 6 -15 -4 -7 -2 -8 4 -4 18 11 14 26 -5 25 -11
0 -13 -3 -5 -6z"/>
<path d="M2155 50 c-3 -5 1 -10 10 -10 9 0 13 5 10 10 -3 6 -8 10 -10 10 -2 0
-7 -4 -10 -10z"/>
<path d="M2180 30 c-9 -6 -10 -10 -3 -10 6 0 15 5 18 10 8 12 4 12 -15 0z"/>
<path d="M2230 29 c0 -5 5 -7 10 -4 6 3 10 8 10 11 0 2 -4 4 -10 4 -5 0 -10
-5 -10 -11z"/>
<path d="M1555 20 c-3 -5 -1 -10 4 -10 6 0 11 5 11 10 0 6 -2 10 -4 10 -3 0
-8 -4 -11 -10z"/>
</g>
</svg>
